<svg width="261" height="550" viewBox="0 0 261 550" fill="none" xmlns="http://www.w3.org/2000/svg">
<path d="M197.77 1.31641H62.8043V398.75H197.77V1.31641Z" stroke="white" stroke-width="1.53895" stroke-miterlimit="10"/>
<path d="M38.2579 482.669H222.347L197.786 398.75H62.8196L38.2579 482.669Z" stroke="white" stroke-width="1.53895" stroke-miterlimit="10"/>
<path d="M212.083 447.612L259.498 474.482V494.027H225.656L212.083 447.612Z" stroke="white" stroke-width="1.53895" stroke-miterlimit="10"/>
<path d="M259.497 479.684H221.624" stroke="white" stroke-width="1.53895" stroke-miterlimit="10"/>
<path d="M48.5382 447.551L1 474.482V494.027H34.9339L48.5382 447.551Z" stroke="white" stroke-width="1.53895" stroke-miterlimit="10"/>
<path d="M1 479.684H39.1352" stroke="white" stroke-width="1.53895" stroke-miterlimit="10"/>
<path d="M62.8198 398.75L93.7681 504.492H31.8715L62.8198 398.75Z" stroke="white" stroke-width="1.53895" stroke-linejoin="round"/>
<path d="M89.6436 549.891L74.4541 504.492H51.1852L35.9803 549.891H89.6436Z" fill="white"/>
<path d="M31.8715 504.492L62.8198 398.75" stroke="white" stroke-width="1.53895" stroke-linejoin="round"/>
<path d="M62.8197 398.75L37.0422 504.492" stroke="white" stroke-width="1.53895" stroke-linejoin="round"/>
<path d="M62.8197 398.75L42.1978 504.492" stroke="white" stroke-width="1.53895" stroke-linejoin="round"/>
<path d="M62.8196 398.75L47.3531 504.492" stroke="white" stroke-width="1.53895" stroke-linejoin="round"/>
<path d="M62.8196 398.75L52.5087 504.492" stroke="white" stroke-width="1.53895" stroke-linejoin="round"/>
<path d="M62.8195 398.75L57.6641 504.492" stroke="white" stroke-width="1.53895" stroke-linejoin="round"/>
<path d="M62.8197 398.75V504.492" stroke="white" stroke-width="1.53895" stroke-linejoin="round"/>
<path d="M62.8197 398.75L67.9752 504.492" stroke="white" stroke-width="1.53895" stroke-linejoin="round"/>
<path d="M62.8197 398.75L73.1307 504.492" stroke="white" stroke-width="1.53895" stroke-linejoin="round"/>
<path d="M62.8197 398.75L78.3015 504.492" stroke="white" stroke-width="1.53895" stroke-linejoin="round"/>
<path d="M62.8197 398.75L83.457 504.492" stroke="white" stroke-width="1.53895" stroke-linejoin="round"/>
<path d="M62.8197 398.75L88.6125 504.492" stroke="white" stroke-width="1.53895" stroke-linejoin="round"/>
<path d="M62.8197 398.75L93.768 504.492" stroke="white" stroke-width="1.53895" stroke-linejoin="round"/>
<path d="M130.287 398.75L161.236 504.492H99.339L130.287 398.75Z" stroke="white" stroke-width="1.53895" stroke-linecap="round" stroke-linejoin="round"/>
<path d="M157.126 549.891L141.922 504.492H118.653L103.463 549.891H157.126Z" fill="white"/>
<path d="M99.3544 504.492L130.303 398.75" stroke="white" stroke-width="1.53895" stroke-linecap="round" stroke-linejoin="round"/>
<path d="M130.303 398.75L104.51 504.492" stroke="white" stroke-width="1.53895" stroke-linecap="round" stroke-linejoin="round"/>
<path d="M130.303 398.75L109.665 504.492" stroke="white" stroke-width="1.53895" stroke-linecap="round" stroke-linejoin="round"/>
<path d="M130.303 398.75L114.821 504.492" stroke="white" stroke-width="1.53895" stroke-linecap="round" stroke-linejoin="round"/>
<path d="M130.303 398.75L119.976 504.492" stroke="white" stroke-width="1.53895" stroke-linecap="round" stroke-linejoin="round"/>
<path d="M130.303 398.75L125.132 504.492" stroke="white" stroke-width="1.53895" stroke-linecap="round" stroke-linejoin="round"/>
<path d="M130.303 398.75V504.492" stroke="white" stroke-width="1.53895" stroke-linecap="round" stroke-linejoin="round"/>
<path d="M130.303 398.75L135.458 504.492" stroke="white" stroke-width="1.53895" stroke-linecap="round" stroke-linejoin="round"/>
<path d="M130.303 398.75L140.614 504.492" stroke="white" stroke-width="1.53895" stroke-linecap="round" stroke-linejoin="round"/>
<path d="M130.303 398.75L145.769 504.492" stroke="white" stroke-width="1.53895" stroke-linecap="round" stroke-linejoin="round"/>
<path d="M130.303 398.75L150.925 504.492" stroke="white" stroke-width="1.53895" stroke-linecap="round" stroke-linejoin="round"/>
<path d="M130.303 398.75L156.08 504.492" stroke="white" stroke-width="1.53895" stroke-linecap="round" stroke-linejoin="round"/>
<path d="M130.303 398.75L161.236 504.492" stroke="white" stroke-width="1.53895" stroke-linecap="round" stroke-linejoin="round"/>
<path d="M197.77 398.75L228.719 504.492H166.837L197.77 398.75Z" stroke="white" stroke-width="1.53895" stroke-linejoin="round"/>
<path d="M224.61 549.891L209.405 504.492H186.151L170.946 549.891H224.61Z" fill="white"/>
<path d="M166.837 504.492L197.786 398.75" stroke="white" stroke-width="1.53895" stroke-linejoin="round"/>
<path d="M197.786 398.75L171.993 504.492" stroke="white" stroke-width="1.53895" stroke-linejoin="round"/>
<path d="M197.786 398.75L177.148 504.492" stroke="white" stroke-width="1.53895" stroke-linejoin="round"/>
<path d="M197.786 398.75L182.304 504.492" stroke="white" stroke-width="1.53895" stroke-linejoin="round"/>
<path d="M197.786 398.75L187.475 504.492" stroke="white" stroke-width="1.53895" stroke-linejoin="round"/>
<path d="M197.786 398.75L192.63 504.492" stroke="white" stroke-width="1.53895" stroke-linejoin="round"/>
<path d="M197.786 398.75V504.492" stroke="white" stroke-width="1.53895" stroke-linejoin="round"/>
<path d="M197.786 398.75L202.941 504.492" stroke="white" stroke-width="1.53895" stroke-linejoin="round"/>
<path d="M197.786 398.75L208.097 504.492" stroke="white" stroke-width="1.53895" stroke-linejoin="round"/>
<path d="M197.786 398.75L213.252 504.492" stroke="white" stroke-width="1.53895" stroke-linejoin="round"/>
<path d="M197.786 398.75L218.408 504.492" stroke="white" stroke-width="1.53895" stroke-linejoin="round"/>
<path d="M197.786 398.75L223.563 504.492" stroke="white" stroke-width="1.53895" stroke-linejoin="round"/>
<path d="M197.786 398.75L228.734 504.492" stroke="white" stroke-width="1.53895" stroke-linejoin="round"/>
<path d="M62.8043 311.954H197.77" stroke="white" stroke-width="1.53895" stroke-miterlimit="10"/>
<path d="M62.8043 218.462H197.786" stroke="white" stroke-width="1.53895" stroke-miterlimit="10"/>
<path d="M62.8043 54.2871H197.786" stroke="white" stroke-width="1.53895" stroke-miterlimit="10"/>
<path d="M62.8043 249.857H197.786" stroke="white" stroke-width="1.53895" stroke-miterlimit="10"/>
<path d="M130.287 311.954V398.75L105.787 482.454H87.3197V311.954" fill="white"/>
<path d="M197.786 398.75L197.77 311.954H173.07V482.454" fill="white"/>
<path d="M62.8043 1.31641V54.2871H87.3198V1.31641" fill="white"/>
<path d="M173.07 1.31641V54.2871H130.287V1.31641" fill="white"/>
<path d="M170.854 104.257H133.119V126.187H170.854V104.257Z" fill="white"/>
<path d="M84.7344 104.257H62.8043V126.187H84.7344V104.257Z" fill="white"/>
<path d="M157.302 319.615H159.705V332.755C159.705 334.112 159.385 335.323 158.746 336.389C158.113 337.448 157.218 338.285 156.062 338.898C154.905 339.506 153.549 339.809 151.992 339.809C150.435 339.809 149.078 339.506 147.922 338.898C146.766 338.285 145.868 337.448 145.228 336.389C144.595 335.323 144.279 334.112 144.279 332.755V319.615H146.682V332.561C146.682 333.53 146.895 334.393 147.321 335.148C147.748 335.898 148.355 336.489 149.143 336.922C149.938 337.348 150.887 337.561 151.992 337.561C153.097 337.561 154.046 337.348 154.841 336.922C155.635 336.489 156.243 335.898 156.663 335.148C157.089 334.393 157.302 333.53 157.302 332.561V319.615Z" fill="white"/>
<path d="M156.209 350.145C156.092 349.163 155.621 348.4 154.794 347.858C153.967 347.315 152.953 347.044 151.751 347.044C150.873 347.044 150.104 347.186 149.445 347.47C148.793 347.754 148.282 348.145 147.914 348.643C147.552 349.14 147.371 349.705 147.371 350.338C147.371 350.868 147.497 351.323 147.749 351.705C148.008 352.079 148.337 352.393 148.738 352.645C149.138 352.89 149.558 353.094 149.997 353.255C150.437 353.41 150.84 353.536 151.209 353.633L153.224 354.176C153.741 354.311 154.316 354.499 154.949 354.738C155.588 354.977 156.199 355.303 156.78 355.716C157.368 356.123 157.853 356.646 158.234 357.286C158.615 357.926 158.806 358.71 158.806 359.641C158.806 360.713 158.525 361.682 157.963 362.548C157.407 363.413 156.593 364.101 155.521 364.612C154.455 365.122 153.16 365.377 151.635 365.377C150.214 365.377 148.983 365.148 147.943 364.689C146.909 364.231 146.096 363.591 145.501 362.771C144.913 361.95 144.581 360.997 144.503 359.912H146.984C147.048 360.661 147.3 361.282 147.74 361.772C148.185 362.257 148.747 362.619 149.426 362.858C150.11 363.09 150.847 363.207 151.635 363.207C152.552 363.207 153.376 363.058 154.106 362.761C154.836 362.457 155.414 362.037 155.84 361.501C156.267 360.959 156.48 360.325 156.48 359.602C156.48 358.943 156.296 358.407 155.928 357.993C155.559 357.58 155.075 357.244 154.474 356.986C153.873 356.727 153.224 356.501 152.526 356.307L150.085 355.61C148.534 355.164 147.307 354.528 146.402 353.701C145.498 352.874 145.046 351.792 145.046 350.455C145.046 349.343 145.346 348.374 145.947 347.548C146.554 346.714 147.368 346.068 148.389 345.61C149.416 345.144 150.563 344.912 151.829 344.912C153.108 344.912 154.245 345.141 155.24 345.6C156.234 346.052 157.023 346.672 157.604 347.46C158.192 348.249 158.502 349.143 158.534 350.145H156.209Z" fill="white"/>
<path d="M144.831 390.597H142.312L149.598 370.752H152.079L159.366 390.597H156.847L150.916 373.891H150.761L144.831 390.597ZM145.761 382.845H155.916V384.976H145.761V382.845Z" fill="white"/>
<path d="M76.9732 317.569H78.6554V326.767C78.6554 327.716 78.4315 328.564 77.9839 329.31C77.5407 330.052 76.9144 330.637 76.105 331.067C75.2955 331.492 74.3459 331.705 73.2561 331.705C72.1663 331.705 71.2167 331.492 70.4073 331.067C69.5978 330.637 68.9693 330.052 68.5216 329.31C68.0784 328.564 67.8569 327.716 67.8569 326.767V317.569H69.539V326.631C69.539 327.309 69.6883 327.913 69.9867 328.442C70.2852 328.967 70.7102 329.38 71.2619 329.683C71.8181 329.982 72.4829 330.131 73.2561 330.131C74.0294 330.131 74.6941 329.982 75.2503 329.683C75.8065 329.38 76.2316 328.967 76.5255 328.442C76.824 327.913 76.9732 327.309 76.9732 326.631V317.569Z" fill="white"/>
<path d="M75.8459 346.61C75.7645 345.922 75.4344 345.389 74.8556 345.009C74.2768 344.629 73.5668 344.439 72.7257 344.439C72.1107 344.439 71.5726 344.539 71.1114 344.738C70.6546 344.937 70.2974 345.21 70.0397 345.558C69.7864 345.906 69.6598 346.302 69.6598 346.745C69.6598 347.116 69.748 347.435 69.9243 347.702C70.1052 347.964 70.3358 348.183 70.6162 348.36C70.8966 348.532 71.1905 348.674 71.498 348.787C71.8055 348.896 72.0881 348.984 72.3459 349.052L73.7567 349.431C74.1185 349.526 74.5209 349.657 74.9641 349.825C75.4118 349.992 75.8391 350.22 76.2461 350.51C76.6576 350.795 76.9967 351.161 77.2635 351.609C77.5303 352.056 77.6637 352.606 77.6637 353.257C77.6637 354.008 77.467 354.686 77.0736 355.292C76.6847 355.898 76.1149 356.379 75.3643 356.737C74.6182 357.094 73.7115 357.273 72.6443 357.273C71.6495 357.273 70.788 357.112 70.06 356.791C69.3365 356.47 68.7667 356.022 68.3507 355.448C67.9392 354.874 67.7063 354.207 67.652 353.447H69.3885C69.4337 353.971 69.6101 354.406 69.9176 354.749C70.2296 355.088 70.623 355.342 71.0978 355.509C71.5771 355.672 72.0926 355.753 72.6443 355.753C73.2864 355.753 73.863 355.649 74.374 355.441C74.885 355.229 75.2897 354.935 75.5881 354.559C75.8866 354.179 76.0358 353.736 76.0358 353.23C76.0358 352.769 75.9069 352.393 75.6492 352.104C75.3914 351.814 75.0523 351.579 74.6317 351.398C74.2112 351.218 73.7567 351.059 73.2684 350.924L71.559 350.435C70.4738 350.123 69.6146 349.678 68.9815 349.099C68.3484 348.52 68.0319 347.763 68.0319 346.827C68.0319 346.049 68.2422 345.371 68.6627 344.792C69.0878 344.208 69.6576 343.756 70.372 343.435C71.091 343.11 71.8937 342.947 72.78 342.947C73.6753 342.947 74.4712 343.107 75.1676 343.428C75.864 343.745 76.4157 344.179 76.8226 344.731C77.2341 345.282 77.4512 345.909 77.4738 346.61H75.8459Z" fill="white"/>
<path d="M67.9062 382.597H66.1427L71.2435 368.705H72.9799L78.0807 382.597H76.3171L72.166 370.903H72.0574L67.9062 382.597ZM68.5574 377.17H75.666V378.663H68.5574V377.17Z" fill="white"/>
<path d="M62.8043 218.462V311.954" stroke="white" stroke-width="1.53895" stroke-miterlimit="10"/>
<path d="M67.1594 218.462V311.954" stroke="white" stroke-width="1.53895" stroke-miterlimit="10"/>
<path d="M71.5146 218.462V311.954" stroke="white" stroke-width="1.53895" stroke-miterlimit="10"/>
<path d="M75.8699 218.462V311.954" stroke="white" stroke-width="1.53895" stroke-miterlimit="10"/>
<path d="M80.2251 218.462V311.954" stroke="white" stroke-width="1.53895" stroke-miterlimit="10"/>
<path d="M84.5804 218.462V311.954" stroke="white" stroke-width="1.53895" stroke-miterlimit="10"/>
<path d="M88.9357 218.462V311.954" stroke="white" stroke-width="1.53895" stroke-miterlimit="10"/>
<path d="M93.2908 218.462V311.954" stroke="white" stroke-width="1.53895" stroke-miterlimit="10"/>
<path d="M97.6307 218.462V311.954" stroke="white" stroke-width="1.53895" stroke-miterlimit="10"/>
<path d="M101.986 218.462V311.954" stroke="white" stroke-width="1.53895" stroke-miterlimit="10"/>
<path d="M106.341 218.462V311.954" stroke="white" stroke-width="1.53895" stroke-miterlimit="10"/>
<path d="M110.696 218.462V311.954" stroke="white" stroke-width="1.53895" stroke-miterlimit="10"/>
<path d="M115.052 218.462V311.954" stroke="white" stroke-width="1.53895" stroke-miterlimit="10"/>
<path d="M119.407 218.462V311.954" stroke="white" stroke-width="1.53895" stroke-miterlimit="10"/>
<path d="M123.762 218.462V311.954" stroke="white" stroke-width="1.53895" stroke-miterlimit="10"/>
<path d="M128.117 218.462V311.954" stroke="white" stroke-width="1.53895" stroke-miterlimit="10"/>
<path d="M132.473 218.462V311.954" stroke="white" stroke-width="1.53895" stroke-miterlimit="10"/>
<path d="M136.828 218.462V311.954" stroke="white" stroke-width="1.53895" stroke-miterlimit="10"/>
<path d="M141.183 218.462V311.954" stroke="white" stroke-width="1.53895" stroke-miterlimit="10"/>
<path d="M145.523 218.462V311.954" stroke="white" stroke-width="1.53895" stroke-miterlimit="10"/>
<path d="M149.878 218.462V311.954" stroke="white" stroke-width="1.53895" stroke-miterlimit="10"/>
<path d="M154.233 218.462V311.954" stroke="white" stroke-width="1.53895" stroke-miterlimit="10"/>
<path d="M158.589 218.462V311.954" stroke="white" stroke-width="1.53895" stroke-miterlimit="10"/>
<path d="M162.944 218.462V311.954" stroke="white" stroke-width="1.53895" stroke-miterlimit="10"/>
<path d="M167.299 218.462V311.954" stroke="white" stroke-width="1.53895" stroke-miterlimit="10"/>
<path d="M171.654 218.462V311.954" stroke="white" stroke-width="1.53895" stroke-miterlimit="10"/>
<path d="M176.009 218.462V311.954" stroke="white" stroke-width="1.53895" stroke-miterlimit="10"/>
<path d="M180.365 218.462V311.954" stroke="white" stroke-width="1.53895" stroke-miterlimit="10"/>
<path d="M184.72 218.462V311.954" stroke="white" stroke-width="1.53895" stroke-miterlimit="10"/>
<path d="M189.075 218.462V311.954" stroke="white" stroke-width="1.53895" stroke-miterlimit="10"/>
<path d="M193.415 218.462V311.954" stroke="white" stroke-width="1.53895" stroke-miterlimit="10"/>
<path d="M197.77 218.462V311.954" stroke="white" stroke-width="1.53895" stroke-miterlimit="10"/>
</svg>
