<svg width="149" height="408" viewBox="0 0 149 408" fill="none" xmlns="http://www.w3.org/2000/svg">
<path d="M141.732 406.317V76.9045L119.155 1.38818H29.3269L6.76587 76.9045V406.317H141.732Z" stroke="white" stroke-width="1.53895" stroke-miterlimit="10"/>
<path d="M6.76581 254.022L0.794678 268.981V316.704L6.76581 333.201V254.022Z" stroke="white" stroke-width="1.53895" stroke-miterlimit="10"/>
<path d="M141.732 333.201L147.703 318.227V270.505L141.732 254.022V333.201Z" stroke="white" stroke-width="1.53895" stroke-miterlimit="10"/>
<path d="M33.1436 251.037L30.2657 264.441V312.164L33.1436 325.599L36.0368 312.164V264.441L33.1436 251.037Z" stroke="white" stroke-width="1.53895" stroke-linejoin="round"/>
<path d="M60.5368 251.037L57.6589 264.441V312.164L60.5368 325.599L63.43 312.164V264.441L60.5368 251.037Z" stroke="white" stroke-width="1.53895" stroke-linejoin="round"/>
<path d="M87.9455 251.037L85.0522 264.441V312.164L87.9455 325.599L90.8233 312.164V264.441L87.9455 251.037Z" stroke="white" stroke-width="1.53895" stroke-linejoin="round"/>
<path d="M115.339 251.037L112.446 264.441V312.164L115.339 325.599L118.232 312.164V264.441L115.339 251.037Z" stroke="white" stroke-width="1.53895" stroke-linejoin="round"/>
<path d="M6.76587 241.619H141.732" stroke="white" stroke-width="1.53895" stroke-miterlimit="10"/>
<path d="M57.659 285.309H36.0367" stroke="white" stroke-width="1.53895" stroke-miterlimit="10"/>
<path d="M112.446 285.309H90.8234" stroke="white" stroke-width="1.53895" stroke-miterlimit="10"/>
<path d="M141.732 285.309H118.232" stroke="white" stroke-width="1.53895" stroke-miterlimit="10"/>
<path d="M85.0522 285.309H63.4299" stroke="white" stroke-width="1.53895" stroke-miterlimit="10"/>
<path d="M30.2656 285.309H6.76587" stroke="white" stroke-width="1.53895" stroke-miterlimit="10"/>
<path d="M6.76587 117.333H141.732" stroke="white" stroke-width="1.53895" stroke-miterlimit="10"/>
<path d="M6.76587 76.9048H141.732" stroke="white" stroke-width="1.53895" stroke-miterlimit="10"/>
<path d="M18.8312 36.5381H129.512" stroke="white" stroke-width="1.53895" stroke-miterlimit="10"/>
<path d="M6.76587 338.234V406.317H31.266V338.234" fill="white"/>
<path d="M117.016 338.234V406.317H74.2489V338.234" fill="white"/>
<path d="M141.732 307.193H6.76587V338.234H141.732" fill="white"/>
<path d="M129.513 36.5378H74.2489L72.71 1.38818H119.155L129.513 36.5378Z" fill="white"/>
<path d="M6.76587 76.9048H75.7878L74.2488 36.5381H18.8312L6.76587 76.9048Z" fill="white"/>
<path d="M6.76587 76.9048V117.333" stroke="white" stroke-width="1.53895" stroke-miterlimit="10"/>
<path d="M11.1056 76.9048V117.333" stroke="white" stroke-width="1.53895" stroke-miterlimit="10"/>
<path d="M15.4609 76.9048V117.333" stroke="white" stroke-width="1.53895" stroke-miterlimit="10"/>
<path d="M19.8162 76.9048V117.333" stroke="white" stroke-width="1.53895" stroke-miterlimit="10"/>
<path d="M24.1713 76.9048V117.333" stroke="white" stroke-width="1.53895" stroke-miterlimit="10"/>
<path d="M28.5267 76.9048V117.333" stroke="white" stroke-width="1.53895" stroke-miterlimit="10"/>
<path d="M32.8818 76.9048V117.333" stroke="white" stroke-width="1.53895" stroke-miterlimit="10"/>
<path d="M37.2372 76.9048V117.333" stroke="white" stroke-width="1.53895" stroke-miterlimit="10"/>
<path d="M41.5924 76.9048V117.333" stroke="white" stroke-width="1.53895" stroke-miterlimit="10"/>
<path d="M45.9475 76.9048V117.333" stroke="white" stroke-width="1.53895" stroke-miterlimit="10"/>
<path d="M50.3029 76.9048V117.333" stroke="white" stroke-width="1.53895" stroke-miterlimit="10"/>
<path d="M54.6581 76.9048V117.333" stroke="white" stroke-width="1.53895" stroke-miterlimit="10"/>
<path d="M58.9978 76.9048V117.333" stroke="white" stroke-width="1.53895" stroke-miterlimit="10"/>
<path d="M63.3531 76.9048V117.333" stroke="white" stroke-width="1.53895" stroke-miterlimit="10"/>
<path d="M67.7083 76.9048V117.333" stroke="white" stroke-width="1.53895" stroke-miterlimit="10"/>
<path d="M72.0636 76.9048V117.333" stroke="white" stroke-width="1.53895" stroke-miterlimit="10"/>
<path d="M76.4188 76.9048V117.333" stroke="white" stroke-width="1.53895" stroke-miterlimit="10"/>
<path d="M80.7739 76.9048V117.333" stroke="white" stroke-width="1.53895" stroke-miterlimit="10"/>
<path d="M85.1293 76.9048V117.333" stroke="white" stroke-width="1.53895" stroke-miterlimit="10"/>
<path d="M89.4845 76.9048V117.333" stroke="white" stroke-width="1.53895" stroke-miterlimit="10"/>
<path d="M93.8396 76.9048V117.333" stroke="white" stroke-width="1.53895" stroke-miterlimit="10"/>
<path d="M98.1949 76.9048V117.333" stroke="white" stroke-width="1.53895" stroke-miterlimit="10"/>
<path d="M102.55 76.9048V117.333" stroke="white" stroke-width="1.53895" stroke-miterlimit="10"/>
<path d="M106.89 76.9048V117.333" stroke="white" stroke-width="1.53895" stroke-miterlimit="10"/>
<path d="M111.245 76.9048V117.333" stroke="white" stroke-width="1.53895" stroke-miterlimit="10"/>
<path d="M115.6 76.9048V117.333" stroke="white" stroke-width="1.53895" stroke-miterlimit="10"/>
<path d="M119.956 76.9048V117.333" stroke="white" stroke-width="1.53895" stroke-miterlimit="10"/>
<path d="M124.311 76.9048V117.333" stroke="white" stroke-width="1.53895" stroke-miterlimit="10"/>
<path d="M128.666 76.9048V117.333" stroke="white" stroke-width="1.53895" stroke-miterlimit="10"/>
<path d="M133.021 76.9048V117.333" stroke="white" stroke-width="1.53895" stroke-miterlimit="10"/>
<path d="M137.377 76.9048V117.333" stroke="white" stroke-width="1.53895" stroke-miterlimit="10"/>
<path d="M141.732 76.9048V117.333" stroke="white" stroke-width="1.53895" stroke-miterlimit="10"/>
</svg>
