<svg width="92" height="180" viewBox="0 0 92 180" fill="none" xmlns="http://www.w3.org/2000/svg">
<path d="M91.163 1.02393H1.33447V178.388H91.163V1.02393Z" stroke="white" stroke-width="1.53895" stroke-miterlimit="10"/>
<path d="M1.33447 148.563H11.8301" stroke="white" stroke-width="1.53895" stroke-miterlimit="10"/>
<path d="M18.9093 148.563H91.163" stroke="white" stroke-width="1.53895" stroke-miterlimit="10"/>
<path d="M91.163 39.9287H18.9093V54.7488H91.163" fill="white"/>
<path d="M11.8301 39.9287H1.33447V54.7488H11.8301" fill="white"/>
<path d="M18.9092 36.1277H11.8301V168.539H18.9092V36.1277Z" stroke="white" stroke-width="1.53895" stroke-miterlimit="10"/>
<path d="M1.33447 1.02393V39.9286" stroke="white" stroke-width="1.53895" stroke-miterlimit="10"/>
<path d="M6.95166 1.02393V39.9286" stroke="white" stroke-width="1.53895" stroke-miterlimit="10"/>
<path d="M12.5688 1.02393V36.1274" stroke="white" stroke-width="1.53895" stroke-miterlimit="10"/>
<path d="M18.1704 1.02393V36.1274" stroke="white" stroke-width="1.53895" stroke-miterlimit="10"/>
<path d="M23.7877 1.02393V39.9286" stroke="white" stroke-width="1.53895" stroke-miterlimit="10"/>
<path d="M29.4049 1.02393V39.9286" stroke="white" stroke-width="1.53895" stroke-miterlimit="10"/>
<path d="M35.0221 1.02393V39.9286" stroke="white" stroke-width="1.53895" stroke-miterlimit="10"/>
<path d="M40.6393 1.02393V39.9286" stroke="white" stroke-width="1.53895" stroke-miterlimit="10"/>
<path d="M46.2563 1.02393V39.9286" stroke="white" stroke-width="1.53895" stroke-miterlimit="10"/>
<path d="M51.8582 1.02393V39.9286" stroke="white" stroke-width="1.53895" stroke-miterlimit="10"/>
<path d="M57.4753 1.02393V39.9286" stroke="white" stroke-width="1.53895" stroke-miterlimit="10"/>
<path d="M63.0925 1.02393V39.9286" stroke="white" stroke-width="1.53895" stroke-miterlimit="10"/>
<path d="M68.7097 1.02393V39.9286" stroke="white" stroke-width="1.53895" stroke-miterlimit="10"/>
<path d="M74.3269 1.02393V39.9286" stroke="white" stroke-width="1.53895" stroke-miterlimit="10"/>
<path d="M79.944 1.02393V39.9286" stroke="white" stroke-width="1.53895" stroke-miterlimit="10"/>
<path d="M85.5458 1.02393V39.9286" stroke="white" stroke-width="1.53895" stroke-miterlimit="10"/>
<path d="M91.163 1.02393V39.9286" stroke="white" stroke-width="1.53895" stroke-miterlimit="10"/>
</svg>
