<svg width="93" height="320" viewBox="0 0 93 320" fill="none" xmlns="http://www.w3.org/2000/svg">
<path d="M51.5891 9.69475L46.5105 2L41.432 9.69475V74.5769H51.5891V9.69475Z" stroke="white" stroke-width="1.53895" stroke-miterlimit="10"/>
<path d="M91.1708 319.024L72.6419 211.682V147.154L59.0529 127.471L56.0366 79.5636L51.0658 74.5774H41.432L36.4611 79.5636L33.4448 127.471L19.8559 147.154V211.682L1.3269 319.024H91.1708Z" stroke="white" stroke-width="1.53895" stroke-miterlimit="10"/>
<path d="M19.8558 211.682H72.6418" stroke="white" stroke-width="1.53895" stroke-miterlimit="10"/>
<path d="M19.8558 147.154H72.6418" stroke="white" stroke-width="1.53895" stroke-miterlimit="10"/>
<path d="M33.4447 127.471H59.0528" stroke="white" stroke-width="1.53895" stroke-miterlimit="10"/>
<path d="M36.4612 79.5635H56.0366" stroke="white" stroke-width="1.53895" stroke-miterlimit="10"/>
<path d="M42.4323 127.286L35.6455 146.969" stroke="white" stroke-width="1.53895"/>
<path d="M50.0193 127.286L56.8061 146.969" stroke="white" stroke-width="1.53895"/>
<path d="M36.4612 79.5635L57.3447 100.37" stroke="white" stroke-width="1.53895" stroke-miterlimit="10"/>
<path d="M56.0365 79.5635L35.153 100.37" stroke="white" stroke-width="1.53895" stroke-miterlimit="10"/>
<path d="M35.0916 101.324L59.053 125.208" stroke="white" stroke-width="1.53895" stroke-miterlimit="10"/>
<path d="M57.4064 101.324L33.5989 125.039" stroke="white" stroke-width="1.53895" stroke-miterlimit="10"/>
<path d="M27.5506 211.682L9.02161 319.024" stroke="white" stroke-width="1.53895" stroke-miterlimit="10"/>
<path d="M83.4762 319.024L64.9473 211.682" stroke="white" stroke-width="1.53895" stroke-miterlimit="10"/>
<path d="M19.8558 152.833H15.7622V163.313H19.8558V152.833Z" stroke="white" stroke-width="1.53895" stroke-miterlimit="10"/>
<path d="M42.2937 152.833H35.7686V163.313H42.2937V152.833Z" fill="white"/>
<path d="M76.7356 152.833H72.642V163.313H76.7356V152.833Z" stroke="white" stroke-width="1.53895" stroke-miterlimit="10"/>
</svg>
